<svg xmlns="http://www.w3.org/2000/svg" viewBox="0 0 219.89 105.61"><defs><style>.cls-1{font-size:97.96px;font-family:Raleway-SemiBold, Raleway;font-weight:700;}.cls-2{fill:none;}</style></defs><title>Asset 6</title><g id="Layer_2" data-name="Layer 2"><g id="Layer_1-2" data-name="Layer 1"><text class="cls-1" transform="translate(0 83.75)">I</text><rect class="cls-2" x="28.97" y="23.71" width="0.21" height="20.47"/><path class="cls-2" d="M51.21,74.26a9.78,9.78,0,0,0,5.24-1.42A10.22,10.22,0,0,0,60.07,69a10.7,10.7,0,0,0,1.32-5.24,11.65,11.65,0,0,0-1.22-5.34,10.94,10.94,0,0,0-3.33-3.92,8.28,8.28,0,0,0-5-1.52H29.18V74.26Z"/><rect class="cls-2" x="28.97" y="53" width="0.21" height="21.26"/><path class="cls-2" d="M142.94,43.62a13.72,13.72,0,0,0-7.69-2.27,13.49,13.49,0,0,0-7.74,2.32A16.92,16.92,0,0,0,122,49.8,18.11,18.11,0,0,0,120,58.54,18.22,18.22,0,0,0,122,67.23a16.15,16.15,0,0,0,5.48,6.08,14,14,0,0,0,7.74,2.22,13.72,13.72,0,0,0,7.69-2.27,16.19,16.19,0,0,0,5.54-6.18,19.34,19.34,0,0,0,0-17.33A16.26,16.26,0,0,0,142.94,43.62Z"/><path class="cls-2" d="M200.2,42.72a13.92,13.92,0,0,0-6-1.37,13.06,13.06,0,0,0-6.32,1.51,15.45,15.45,0,0,0-4.75,4,19.09,19.09,0,0,0-3,5.63A19.74,19.74,0,0,0,179,59a17.48,17.48,0,0,0,1.22,6.56A18.49,18.49,0,0,0,183.64,71,15.16,15.16,0,0,0,195,76a13.33,13.33,0,0,0,4.7-.83,16.25,16.25,0,0,0,4.16-2.25,16,16,0,0,0,3.28-3.23,11.61,11.61,0,0,0,2-3.87V52.42a17.47,17.47,0,0,0-3.62-5.83A17.13,17.13,0,0,0,200.2,42.72Z"/><path class="cls-2" d="M49.15,44.19a9.12,9.12,0,0,0,4.9-1.33,9.54,9.54,0,0,0,3.42-3.62A10.62,10.62,0,0,0,58.75,34a11.54,11.54,0,0,0-1.18-5.34A9.26,9.26,0,0,0,54.39,25a8.21,8.21,0,0,0-4.65-1.33H29.18V44.19Z"/><path d="M59.73,48.11a15.82,15.82,0,0,0,7.39-6.62,18.66,18.66,0,0,0,2.6-9.55,19.73,19.73,0,0,0-1.91-8.47,17,17,0,0,0-5.49-6.66,14,14,0,0,0-8.47-2.6H29.18v9.5H49.74A8.21,8.21,0,0,1,54.39,25a9.26,9.26,0,0,1,3.18,3.62A11.54,11.54,0,0,1,58.75,34a10.62,10.62,0,0,1-1.28,5.24,9.54,9.54,0,0,1-3.42,3.62,9.12,9.12,0,0,1-4.9,1.33h-20V53H51.89a8.28,8.28,0,0,1,5,1.52,10.94,10.94,0,0,1,3.33,3.92,11.65,11.65,0,0,1,1.22,5.34A10.7,10.7,0,0,1,60.07,69a10.22,10.22,0,0,1-3.62,3.82,9.78,9.78,0,0,1-5.24,1.42h-22v9.5h22A26.59,26.59,0,0,0,62,81.61a18.65,18.65,0,0,0,7.79-6.17,16.05,16.05,0,0,0,2.89-9.6,18.37,18.37,0,0,0-3.48-11.32A17.65,17.65,0,0,0,59.73,48.11Z"/><path d="M101.41,74.85a16.61,16.61,0,0,1-3.68.39,4.16,4.16,0,0,1-2.93-1.08q-1.18-1.08-1.18-5V12.25H82.84v60.8q0,5.51,3.14,8.6t8.62,3.09a28.67,28.67,0,0,0,5.78-.68A32.13,32.13,0,0,0,106,82.39l-1.56-8.52A15.42,15.42,0,0,1,101.41,74.85Z"/><path d="M154.4,40a25.16,25.16,0,0,0-8.32-5.72,29.08,29.08,0,0,0-21.65,0A25.2,25.2,0,0,0,116.1,40a25.49,25.49,0,0,0-5.34,8.4,27.44,27.44,0,0,0-1.86,10.09,27.11,27.11,0,0,0,1.86,10,26.18,26.18,0,0,0,5.34,8.39,25,25,0,0,0,8.28,5.78,29.34,29.34,0,0,0,21.7,0,24.87,24.87,0,0,0,8.32-5.78,26.18,26.18,0,0,0,5.34-8.39,27.11,27.11,0,0,0,1.86-10,27.44,27.44,0,0,0-1.86-10.09A25.49,25.49,0,0,0,154.4,40Zm-5.92,27.13a16.19,16.19,0,0,1-5.54,6.18,13.72,13.72,0,0,1-7.69,2.27,14,14,0,0,1-7.74-2.22A16.15,16.15,0,0,1,122,67.23,18.22,18.22,0,0,1,120,58.54,18.11,18.11,0,0,1,122,49.8a16.92,16.92,0,0,1,5.48-6.13,13.49,13.49,0,0,1,7.74-2.32,13.72,13.72,0,0,1,7.69,2.27,16.26,16.26,0,0,1,5.54,6.13,19.34,19.34,0,0,1,0,17.33Z"/><path d="M210.39,32.92v9.7A24.54,24.54,0,0,0,202.7,35a20.09,20.09,0,0,0-10.83-2.89,21.89,21.89,0,0,0-9.6,2.06,22.82,22.82,0,0,0-7.49,5.73,27.18,27.18,0,0,0-4.95,8.47,29.74,29.74,0,0,0-1.76,10.29,28.73,28.73,0,0,0,1.71,9.89,27.17,27.17,0,0,0,4.8,8.33,22.83,22.83,0,0,0,7.4,5.73,21.39,21.39,0,0,0,9.5,2.1,20.91,20.91,0,0,0,10.09-2.59,19.28,19.28,0,0,0,7.54-7.2v7.83A14.14,14.14,0,0,1,206.86,91a13.34,13.34,0,0,1-6,4.81,21.16,21.16,0,0,1-8.17,1.56,23.34,23.34,0,0,1-9.95-2.16A18.85,18.85,0,0,1,175.12,89l-6.07,5.69a28.85,28.85,0,0,0,9.5,8q5.58,2.94,14.11,2.94a34.09,34.09,0,0,0,13.91-2.73A22.74,22.74,0,0,0,216.31,95a21.5,21.5,0,0,0,3.58-12.57V32.92Zm-1.28,32.92a11.61,11.61,0,0,1-2,3.87,16,16,0,0,1-3.28,3.23,16.25,16.25,0,0,1-4.16,2.25A13.33,13.33,0,0,1,195,76a15.16,15.16,0,0,1-11.37-5,18.49,18.49,0,0,1-3.38-5.44A17.48,17.48,0,0,1,179,59a19.74,19.74,0,0,1,1.08-6.47,19.09,19.09,0,0,1,3-5.63,15.45,15.45,0,0,1,4.75-4,13.06,13.06,0,0,1,6.32-1.51,13.92,13.92,0,0,1,6,1.37,17.13,17.13,0,0,1,5.29,3.87,17.47,17.47,0,0,1,3.62,5.83Z"/></g></g></svg>