<svg xmlns="http://www.w3.org/2000/svg" viewBox="0 0 45.18 21.7"><defs><style>.cls-1{font-size:20.13px;font-family:Raleway-SemiBold, Raleway;font-weight:700;}.cls-1,.cls-2{fill:#000;}</style></defs><title>Asset 8</title><g id="Layer_2" data-name="Layer 2"><g id="Layer_1-2" data-name="Layer 1"><text class="cls-1" transform="translate(0 17.21)">I</text><path class="cls-2" d="M12.27,9.88a3.24,3.24,0,0,0,1.52-1.36,3.77,3.77,0,0,0,.53-2,4.09,4.09,0,0,0-.39-1.74A3.51,3.51,0,0,0,12.8,3.45a2.92,2.92,0,0,0-1.74-.53H6v2h4.23a1.68,1.68,0,0,1,.95.27,1.86,1.86,0,0,1,.66.75A2.37,2.37,0,0,1,12.07,7a2.21,2.21,0,0,1-.26,1.08,2,2,0,0,1-.71.75,1.87,1.87,0,0,1-1,.27H6v1.81h4.67a1.69,1.69,0,0,1,1,.31,2.24,2.24,0,0,1,.68.81,2.3,2.3,0,0,1,.25,1.09,2.22,2.22,0,0,1-.27,1.08,2.06,2.06,0,0,1-.74.78,2,2,0,0,1-1.08.3H6v2h4.53a5.48,5.48,0,0,0,2.21-.44,3.83,3.83,0,0,0,1.6-1.27,3.27,3.27,0,0,0,.6-2,3.76,3.76,0,0,0-.72-2.33A3.58,3.58,0,0,0,12.27,9.88Z"/><path class="cls-2" d="M20.83,15.38a3.52,3.52,0,0,1-.75.08.89.89,0,0,1-.6-.22,1.44,1.44,0,0,1-.25-1V2.52H17V15a2.35,2.35,0,0,0,.64,1.76,2.4,2.4,0,0,0,1.78.64,6.05,6.05,0,0,0,1.18-.14,6.36,6.36,0,0,0,1.15-.34l-.32-1.75A3.77,3.77,0,0,1,20.83,15.38Z"/><path class="cls-2" d="M31.72,8.21A5.08,5.08,0,0,0,30,7a5.63,5.63,0,0,0-2.22-.43A5.72,5.72,0,0,0,25.56,7a5.15,5.15,0,0,0-2.8,2.9A5.54,5.54,0,0,0,22.37,12a5.43,5.43,0,0,0,.39,2.06,5.35,5.35,0,0,0,1.09,1.72A5.07,5.07,0,0,0,25.55,17a5.53,5.53,0,0,0,2.24.43A5.46,5.46,0,0,0,30,17a4.83,4.83,0,0,0,1.71-1.19,5.38,5.38,0,0,0,1.1-1.72A5.63,5.63,0,0,0,33.2,12a5.73,5.73,0,0,0-.38-2.08A5.27,5.27,0,0,0,31.72,8.21ZM30.5,13.78a3.32,3.32,0,0,1-1.13,1.27,2.87,2.87,0,0,1-1.58.47,2.82,2.82,0,0,1-1.59-.46,3.26,3.26,0,0,1-1.13-1.25A3.74,3.74,0,0,1,24.65,12a3.74,3.74,0,0,1,.42-1.8A3.52,3.52,0,0,1,26.2,9a2.76,2.76,0,0,1,1.59-.48A2.87,2.87,0,0,1,29.37,9a3.36,3.36,0,0,1,1.13,1.26A3.65,3.65,0,0,1,30.93,12,3.65,3.65,0,0,1,30.5,13.78Z"/><path class="cls-2" d="M43.22,6.76v2A4.81,4.81,0,0,0,41.64,7.2a4.05,4.05,0,0,0-2.22-.6,4.55,4.55,0,0,0-2,.42A4.8,4.8,0,0,0,35.91,8.2a5.62,5.62,0,0,0-1,1.74,6.13,6.13,0,0,0-.36,2.12,6,6,0,0,0,.35,2,5.8,5.8,0,0,0,1,1.71A4.62,4.62,0,0,0,37.39,17a4.46,4.46,0,0,0,4-.1A3.94,3.94,0,0,0,43,15.4V17a2.9,2.9,0,0,1-.46,1.69,2.83,2.83,0,0,1-1.24,1,4.45,4.45,0,0,1-1.68.32,4.75,4.75,0,0,1-2-.45A3.77,3.77,0,0,1,36,18.27l-1.25,1.17a5.93,5.93,0,0,0,2,1.65,6.11,6.11,0,0,0,2.9.61,7.08,7.08,0,0,0,2.86-.56,4.74,4.74,0,0,0,2-1.63,4.39,4.39,0,0,0,.74-2.58V6.76ZM43,13.53a2.36,2.36,0,0,1-.4.79,3.23,3.23,0,0,1-.67.66,3.6,3.6,0,0,1-.86.47,2.87,2.87,0,0,1-1,.17,3.09,3.09,0,0,1-1.28-.27,3,3,0,0,1-1.05-.77,3.56,3.56,0,0,1-.95-2.46A4.26,4.26,0,0,1,37,10.79a3.94,3.94,0,0,1,.63-1.16,3.06,3.06,0,0,1,1-.82,2.69,2.69,0,0,1,1.3-.32,2.84,2.84,0,0,1,1.23.29,3.45,3.45,0,0,1,1.09.79,3.51,3.51,0,0,1,.74,1.2Z"/></g></g></svg>